PathFileType  4	(X/Y/Z) C:\Users\antoi\Documents\MyRepositories\mobilecap\ResultsAnalysis
DataRate	CameraRate	NumFrames	NumMarkers	Units	OrigDataRate	OrigDataStartFrame	OrigNumFrames
100.0	100.0	4	51	mm	100.0	741	1184
Frame#	Time	r_knee			r_shank_antsup			r_ankle			r_calc			r_5meta			r_toe			L_knee			L_shank_antsup			L_ankle			L_calc			L_5meta			L_toe			r_sh2			r_sh3			r_sh4			L_sh2			L_sh3			r_thigh1			r_thigh2			r_thigh3			r_thigh4			r_thigh5			L_thigh1			L_thigh2			L_thigh3			L_thigh4			r.ASIS			r.PSIS			L.ASIS			L.PSIS			C7			R_Shoulder			L_Shoulder			R_Sternum			L_Sternum			R_humerus			R_elbow_med			R_elbow_lat			R_forearm			R_wrist_radius			R_wrist_ulna			L_humerus			L_elbow_med			L_elbow_lat			L_forearm			L_wrist_radius			L_wrist_ulna			R_HJC			L_HJC			R_HJC_reg			L_HJC_reg			
		X1	Y1	Z1	X2	Y2	Z2	X3	Y3	Z3	X4	Y4	Z4	X5	Y5	Z5	X6	Y6	Z6	X7	Y7	Z7	X8	Y8	Z8	X9	Y9	Z9	X10	Y10	Z10	X11	Y11	Z11	X12	Y12	Z12	X13	Y13	Z13	X14	Y14	Z14	X15	Y15	Z15	X16	Y16	Z16	X17	Y17	Z17	X18	Y18	Z18	X19	Y19	Z19	X20	Y20	Z20	X21	Y21	Z21	X22	Y22	Z22	X23	Y23	Z23	X24	Y24	Z24	X25	Y25	Z25	X26	Y26	Z26	X27	Y27	Z27	X28	Y28	Z28	X29	Y29	Z29	X30	Y30	Z30	X31	Y31	Z31	X32	Y32	Z32	X33	Y33	Z33	X34	Y34	Z34	X35	Y35	Z35	X36	Y36	Z36	X37	Y37	Z37	X38	Y38	Z38	X39	Y39	Z39	X40	Y40	Z40	X41	Y41	Z41	X42	Y42	Z42	X43	Y43	Z43	X44	Y44	Z44	X45	Y45	Z45	X46	Y46	Z46	X47	Y47	Z47	X48	Y48	Z48	X49	Y49	Z49	X50	Y50	Z50	X51	Y51	Z51	

741	7.40000000	-272.50600	479.91535	-413.45453	-240.76512	370.20044	-405.34069	-312.28023	92.37608	-407.49906	-349.90137	52.21037	-462.56611	-207.25498	39.31859	-350.34018	-164.37575	58.51293	-385.71063	-257.57491	479.32872	-838.02081	-216.35171	378.26337	-818.15739	-299.40412	92.67288	-857.52896	-334.43808	52.21095	-806.99024	-185.82975	36.86046	-906.49722	-137.41916	55.48023	-861.06948	-251.56710	257.29806	-407.96823	-306.52210	373.56593	-368.26468	-329.56159	263.75535	-382.18244	-279.06351	406.83144	-874.52774	-291.98861	287.00574	-895.86955	-166.58885	774.82998	-445.33151	-170.62570	669.03332	-427.91825	-220.42732	648.17922	-389.31593	-275.14063	779.06730	-415.04310	-273.50229	664.26321	-396.87731	-171.49502	763.40758	-818.94815	-168.25754	628.63538	-833.06211	-280.58585	774.43307	-842.86332	-276.71918	632.71732	-851.55296	-136.77401	927.38559	-499.21407	-311.15070	990.50441	-575.23913	-124.92873	928.07328	-746.30129	-309.80564	991.66529	-691.20004	-300.50340	1428.43371	-631.87645	-244.98455	1405.52473	-480.58537	-236.87006	1407.40320	-786.17179	-174.38013	1387.30162	-613.17717	-171.46961	1383.71305	-653.68266	-219.92707	1295.67612	-401.13372	-302.73734	1092.22868	-385.24949	-249.42887	1124.59789	-328.15251	-159.66650	1158.42894	-406.04927	-110.71144	1198.18684	-485.83672	-86.14635	1170.36785	-476.99183	-202.50062	1272.24553	-863.72076	-269.48964	1074.49631	-859.48737	-224.54662	1094.05785	-924.49906	-144.97086	1127.75096	-857.10565	-93.64286	1177.20563	-752.02485	-71.06455	1153.54745	-754.84609	-232.92669	866.39784	-530.51739	-220.55409	863.08599	-719.46155	-212.86832	865.32974	-535.39052	-210.97479	866.96395	-698.63683	
742	7.41000000	-272.20822	479.85958	-413.58822	-240.51515	370.07579	-405.43225	-312.24014	92.35407	-407.59200	-349.90545	52.21810	-462.58598	-207.25558	39.32092	-350.35946	-164.38392	58.51971	-385.69786	-257.10998	479.16642	-837.93717	-215.86903	378.00541	-817.99456	-299.32927	92.68380	-857.49954	-334.43507	52.19385	-806.99842	-185.81808	36.87401	-906.48693	-137.42024	55.47398	-861.00597	-251.39673	257.20693	-407.96353	-306.29902	373.52732	-368.59394	-329.43976	264.02829	-382.33176	-278.52582	406.76960	-874.54908	-291.68668	286.94261	-895.77014	-167.19750	775.04945	-445.24579	-171.08478	669.40604	-427.70273	-220.69722	648.14186	-389.32235	-275.81124	778.83879	-415.04321	-273.85951	664.00523	-397.03613	-171.83175	763.42675	-819.12647	-168.24977	628.77161	-833.17437	-280.95833	774.24443	-843.44451	-276.67334	632.52305	-851.76051	-137.29132	927.29663	-499.41007	-311.63812	990.61141	-575.48528	-125.61448	928.00010	-746.47977	-310.33271	991.71160	-691.37928	-300.16437	1428.67922	-631.80133	-244.44759	1405.60132	-480.63828	-236.43998	1407.63490	-786.21175	-173.93661	1387.28566	-613.26527	-171.04237	1383.69210	-653.73385	-219.07233	1295.76503	-401.33457	-301.77083	1092.45440	-384.65582	-248.05461	1124.87371	-327.90705	-158.74571	1158.64359	-406.26918	-110.24359	1198.48528	-486.04765	-85.53602	1170.75884	-477.44496	-201.79913	1272.69378	-863.81928	-268.48942	1074.99765	-860.69325	-223.30486	1094.95203	-925.91062	-144.23919	1128.44624	-857.49058	-93.45200	1177.79762	-752.30367	-70.71206	1154.28203	-755.11829	-233.54190	866.41927	-530.70253	-221.22534	863.07254	-719.64973	-213.50891	865.40253	-535.52619	-211.67031	866.95209	-698.75723	
743	7.42000000	-271.81552	479.74586	-413.76653	-240.15339	369.92492	-405.58601	-312.16009	92.27894	-407.74226	-349.91083	52.20924	-462.60944	-207.23814	39.32843	-350.40346	-164.38147	58.52952	-385.71821	-256.45085	479.02709	-838.07218	-215.25717	377.76093	-817.88656	-299.25284	92.68551	-857.51744	-334.38229	52.06716	-806.89641	-185.81030	36.88142	-906.47600	-137.39665	55.48084	-860.97765	-251.07643	256.95875	-407.98808	-306.02033	373.37987	-369.14589	-329.05994	264.04729	-382.70079	-277.90385	406.77746	-874.59074	-291.27794	286.81862	-895.61705	-167.87099	775.27379	-445.27862	-171.52891	669.63812	-427.61814	-221.02272	648.10324	-389.31318	-276.62797	778.54676	-415.09248	-274.25619	663.70746	-397.18799	-172.27823	763.53531	-819.35764	-168.27305	628.97475	-833.37273	-281.40261	773.99367	-843.77481	-276.67410	632.27284	-852.00881	-137.95123	927.17105	-499.55703	-312.20432	990.67025	-575.67951	-126.32507	927.83311	-746.56693	-310.90571	991.82033	-691.49781	-299.69647	1428.85375	-631.64003	-243.80742	1405.72398	-480.69150	-235.99018	1407.92461	-786.29425	-173.45208	1387.28389	-613.32558	-170.49224	1383.62011	-653.74324	-218.20661	1296.09015	-401.25884	-300.85625	1092.66463	-383.96311	-246.62049	1125.18277	-327.60767	-157.71609	1158.86265	-406.50062	-109.67428	1198.86048	-486.24654	-84.86161	1171.11686	-477.79059	-201.02246	1273.22611	-864.13942	-267.38614	1075.55556	-862.04764	-222.02189	1095.99004	-927.25633	-143.42887	1129.03950	-857.87088	-93.19841	1178.36063	-752.46419	-70.51453	1154.72388	-755.34071	-234.29472	866.41086	-530.83328	-221.98196	863.03541	-719.78022	-214.23399	865.30930	-535.68631	-212.40422	866.92977	-698.87557	
744	7.43000000	-271.28106	479.45903	-414.15973	-239.63050	369.75833	-405.72364	-312.08273	92.25225	-407.82325	-349.90305	52.19434	-462.60584	-207.21493	39.34179	-350.45120	-164.36846	58.53068	-385.75923	-255.67161	478.87602	-838.20201	-214.49656	377.58407	-817.91819	-299.15469	92.67215	-857.52888	-334.25390	51.78504	-806.58826	-185.80357	36.89064	-906.45424	-137.39242	55.46766	-860.94008	-250.77535	256.86086	-408.16568	-305.63031	373.14228	-369.84519	-328.73081	263.93618	-383.24588	-277.10197	406.78711	-874.61199	-290.73158	286.63552	-895.43552	-168.75019	775.42620	-445.39198	-171.82187	669.62088	-427.82499	-221.41236	648.01768	-389.39677	-277.59867	778.21599	-415.19122	-274.64203	663.40866	-397.39354	-172.89076	763.74887	-819.62145	-168.30910	629.15322	-833.49930	-282.05816	773.58618	-844.05655	-276.65480	631.93029	-852.27259	-138.78998	926.98165	-499.69849	-312.77902	990.74550	-575.81680	-127.08660	927.61429	-746.61490	-311.50978	992.05976	-691.65445	-299.05752	1429.07232	-631.57580	-243.05878	1405.89439	-480.72927	-235.48041	1408.20244	-786.39559	-172.87291	1387.28303	-613.33919	-169.82699	1383.54550	-653.79256	-217.33825	1296.49769	-401.01004	-299.87068	1092.92838	-383.24554	-245.12491	1125.53532	-327.14287	-156.58742	1159.23442	-406.53822	-108.92182	1199.24986	-486.51028	-84.08146	1171.46395	-478.11562	-200.16962	1273.86397	-864.54999	-266.20180	1076.08096	-863.32755	-220.62913	1096.66135	-927.85962	-142.49889	1129.80278	-858.41291	-92.85308	1178.80469	-752.40452	-70.37238	1154.90220	-755.27350	-235.21832	866.39311	-530.97813	-222.85662	863.03240	-719.92213	-215.06560	865.10679	-535.87658	-213.27825	866.95748	-699.00453	
